<?xml version="1.0" standalone="no"?>
<!DOCTYPE svg PUBLIC "-//W3C//DTD SVG 20010904//EN"
 "http://www.w3.org/TR/2001/REC-SVG-20010904/DTD/svg10.dtd">
<svg version="1.0" xmlns="http://www.w3.org/2000/svg"
 width="91.000000pt" height="92.000000pt" viewBox="0 0 91.000000 92.000000"
 preserveAspectRatio="xMidYMid meet">

<g transform="translate(0.000000,92.000000) scale(0.100000,-0.100000)"
fill="#000000" stroke="none">
<path d="M187 894 c-4 -4 -7 -18 -7 -31 0 -19 -5 -23 -32 -23 -43 0 -93 -31
-113 -70 -14 -26 -15 -74 -13 -351 l3 -321 37 -34 38 -34 355 0 355 0 38 34
37 34 3 321 c2 277 1 325 -13 351 -20 39 -70 70 -112 70 -27 0 -32 4 -35 28
-2 19 -9 27 -23 27 -14 0 -21 -8 -23 -27 l-3 -28 -224 0 -224 0 -3 27 c-3 27
-26 41 -41 27z m643 -504 c0 -247 -1 -261 -20 -280 -19 -19 -33 -20 -355 -20
-322 0 -336 1 -355 20 -19 19 -20 33 -20 280 l0 260 375 0 375 0 0 -260z"/>
<path d="M496 554 c-9 -8 -16 -24 -16 -34 0 -43 54 -65 84 -34 31 30 9 84 -34
84 -10 0 -26 -7 -34 -16z"/>
<path d="M646 554 c-31 -30 -9 -84 34 -84 24 0 50 26 50 50 0 43 -54 65 -84
34z"/>
<path d="M196 404 c-31 -30 -9 -84 34 -84 24 0 50 26 50 50 0 24 -26 50 -50
50 -10 0 -26 -7 -34 -16z"/>
<path d="M346 404 c-31 -30 -9 -84 34 -84 24 0 50 26 50 50 0 24 -26 50 -50
50 -10 0 -26 -7 -34 -16z"/>
<path d="M496 404 c-31 -30 -9 -84 34 -84 24 0 50 26 50 50 0 24 -26 50 -50
50 -10 0 -26 -7 -34 -16z"/>
<path d="M646 404 c-31 -30 -9 -84 34 -84 24 0 50 26 50 50 0 43 -54 65 -84
34z"/>
<path d="M196 254 c-31 -30 -9 -84 34 -84 24 0 50 26 50 50 0 24 -26 50 -50
50 -10 0 -26 -7 -34 -16z"/>
<path d="M346 254 c-31 -30 -9 -84 34 -84 24 0 50 26 50 50 0 24 -26 50 -50
50 -10 0 -26 -7 -34 -16z"/>
<path d="M496 254 c-31 -30 -9 -84 34 -84 24 0 50 26 50 50 0 24 -26 50 -50
50 -10 0 -26 -7 -34 -16z"/>
</g>
</svg>
