<?xml version="1.0" standalone="no"?>
<!DOCTYPE svg PUBLIC "-//W3C//DTD SVG 20010904//EN"
 "http://www.w3.org/TR/2001/REC-SVG-20010904/DTD/svg10.dtd">
<svg version="1.0" xmlns="http://www.w3.org/2000/svg"
 width="94.000000pt" height="94.000000pt" viewBox="0 0 94.000000 94.000000"
 preserveAspectRatio="xMidYMid meet">

<g transform="translate(0.000000,94.000000) scale(0.100000,-0.100000)"
fill="#000000" stroke="none">
<path d="M67 879 l-37 -30 0 -407 0 -407 83 83 82 82 332 0 331 0 26 31 26 31
0 293 0 293 -26 31 -26 31 -377 0 -376 0 -38 -31z m673 -229 l0 -40 -270 0
-270 0 0 40 0 40 270 0 270 0 0 -40z m-130 -170 l0 -40 -205 0 -205 0 0 40 0
40 205 0 205 0 0 -40z"/>
</g>
</svg>
