<?xml version="1.0" standalone="no"?>
<!DOCTYPE svg PUBLIC "-//W3C//DTD SVG 20010904//EN"
 "http://www.w3.org/TR/2001/REC-SVG-20010904/DTD/svg10.dtd">
<svg version="1.0" xmlns="http://www.w3.org/2000/svg"
 width="94.000000pt" height="94.000000pt" viewBox="0 0 94.000000 94.000000"
 preserveAspectRatio="xMidYMid meet">

<g transform="translate(0.000000,94.000000) scale(0.100000,-0.100000)"
fill="#000000" stroke="none">
<path d="M95 897 c-11 -7 -31 -21 -43 -32 l-22 -19 0 -406 0 -405 83 83 82 82
332 0 331 0 26 31 26 31 0 293 0 293 -26 31 -26 31 -371 0 c-274 -1 -377 -4
-392 -13z m733 -69 c17 -17 17 -529 0 -546 -9 -9 -96 -12 -332 -12 l-320 0
-38 -37 -38 -37 0 310 c0 228 3 313 12 322 17 17 699 17 716 0z"/>
<path d="M210 655 l0 -35 260 0 260 0 0 35 0 35 -260 0 -260 0 0 -35z"/>
<path d="M210 475 l0 -35 195 0 195 0 0 35 0 35 -195 0 -195 0 0 -35z"/>
</g>
</svg>
