<?xml version="1.0" standalone="no"?>
<!DOCTYPE svg PUBLIC "-//W3C//DTD SVG 20010904//EN"
 "http://www.w3.org/TR/2001/REC-SVG-20010904/DTD/svg10.dtd">
<svg version="1.0" xmlns="http://www.w3.org/2000/svg"
 width="77.000000pt" height="99.000000pt" viewBox="0 0 77.000000 99.000000"
 preserveAspectRatio="xMidYMid meet">

<g transform="translate(0.000000,99.000000) scale(0.100000,-0.100000)"
fill="#000000" stroke="none">
<path d="M320 959 c-74 -15 -149 -74 -187 -147 -28 -53 -33 -75 -33 -130 0
-112 57 -205 157 -256 l45 -22 -41 -13 c-28 -8 -64 -34 -110 -79 -79 -77 -114
-151 -109 -231 3 -42 5 -46 28 -46 22 0 25 5 32 53 15 102 74 184 171 234 59
31 165 31 224 0 97 -50 156 -132 171 -234 7 -48 10 -53 32 -53 23 0 25 4 28
46 5 78 -30 154 -108 230 -45 44 -82 71 -111 81 l-44 15 36 17 c53 25 118 92
145 150 35 74 33 146 -7 224 -61 124 -188 187 -319 161z m162 -90 c50 -25 105
-95 117 -150 27 -122 -83 -249 -216 -249 -146 0 -243 118 -212 259 29 135 182
204 311 140z"/>
</g>
</svg>
